<?xml version="1.0" encoding="UTF-8" standalone="no"?>
<!DOCTYPE svg PUBLIC "-//W3C//DTD SVG 1.1//EN"
 "http://www.w3.org/Graphics/SVG/1.1/DTD/svg11.dtd">
<!-- Generated by graphviz version 15.1.1 (20260805.0921)
 -->
<!-- Title: dataflow Pages: 1 -->
<svg width="907pt" height="280pt"
 viewBox="0.00 0.00 907.00 280.00" xmlns="http://www.w3.org/2000/svg" xmlns:xlink="http://www.w3.org/1999/xlink">
<g id="graph0" class="graph" transform="scale(1 1) rotate(0) translate(4 275.88)">
<title>dataflow</title>
<polygon fill="white" stroke="none" points="-4,4 -4,-275.88 902.62,-275.88 902.62,4 -4,4"/>
<g id="clust1" class="cluster">
<title>cluster_views</title>
<polygon fill="none" stroke="black" stroke-dasharray="5,2" points="8,-8 8,-83 376,-83 376,-8 8,-8"/>
<text xml:space="preserve" text-anchor="middle" x="192" y="-65.7" font-family="Helvetica,sans-Serif" font-size="14.00">hiccup views (reconciled)</text>
</g>
<g id="clust2" class="cluster">
<title>cluster_chrome</title>
<polygon fill="none" stroke="black" stroke-dasharray="5,2" points="315,-125.13 315,-200.13 675,-200.13 675,-125.13 315,-125.13"/>
<text xml:space="preserve" text-anchor="middle" x="495" y="-182.83" font-family="Helvetica,sans-Serif" font-size="14.00">AppKit chrome (ours, not reconciled)</text>
</g>
<!-- main -->
<g id="node1" class="node">
<title>main</title>
<path fill="none" stroke="black" d="M90.25,-52C90.25,-52 27.75,-52 27.75,-52 21.75,-52 15.75,-46 15.75,-40 15.75,-40 15.75,-28 15.75,-28 15.75,-22 21.75,-16 27.75,-16 27.75,-16 90.25,-16 90.25,-16 96.25,-16 102.25,-22 102.25,-28 102.25,-28 102.25,-40 102.25,-40 102.25,-46 96.25,-52 90.25,-52"/>
<text xml:space="preserve" text-anchor="middle" x="59" y="-35.55" font-family="Helvetica,sans-Serif" font-size="11.00">hub view</text>
<text xml:space="preserve" text-anchor="middle" x="59" y="-23.55" font-family="Helvetica,sans-Serif" font-size="11.00">(main window)</text>
</g>
<!-- dispatch -->
<g id="node7" class="node">
<title>dispatch</title>
<path fill="none" stroke="black" stroke-width="2" d="M288.5,-271.88C288.5,-271.88 221.5,-271.88 221.5,-271.88 215.5,-271.88 209.5,-265.88 209.5,-259.88 209.5,-259.88 209.5,-247.88 209.5,-247.88 209.5,-241.88 215.5,-235.88 221.5,-235.88 221.5,-235.88 288.5,-235.88 288.5,-235.88 294.5,-235.88 300.5,-241.88 300.5,-247.88 300.5,-247.88 300.5,-259.88 300.5,-259.88 300.5,-265.88 294.5,-271.88 288.5,-271.88"/>
<text xml:space="preserve" text-anchor="middle" x="255" y="-255.43" font-family="Helvetica,sans-Serif" font-size="11.00">execute&#45;actions</text>
<text xml:space="preserve" text-anchor="middle" x="255" y="-243.43" font-family="Helvetica,sans-Serif" font-size="11.00">(s/valid? gate)</text>
</g>
<!-- main&#45;&gt;dispatch -->
<g id="edge1" class="edge">
<title>main&#45;&gt;dispatch</title>
<path fill="none" stroke="black" d="M48.89,-52.36C31.32,-85.03 0.21,-156.33 34.75,-200.13 54.73,-225.45 139.56,-239.98 197.91,-247.15"/>
<polygon fill="black" stroke="black" points="197.36,-250.61 207.7,-248.31 198.18,-243.66 197.36,-250.61"/>
<text xml:space="preserve" text-anchor="middle" x="88.38" y="-147.45" font-family="Helvetica,sans-Serif" font-size="9.00">[[:action/open&#45;example id]]</text>
</g>
<!-- prefs -->
<g id="node2" class="node">
<title>prefs</title>
<path fill="none" stroke="black" d="M229.88,-52C229.88,-52 132.12,-52 132.12,-52 126.12,-52 120.12,-46 120.12,-40 120.12,-40 120.12,-28 120.12,-28 120.12,-22 126.12,-16 132.12,-16 132.12,-16 229.88,-16 229.88,-16 235.88,-16 241.88,-22 241.88,-28 241.88,-28 241.88,-40 241.88,-40 241.88,-46 235.88,-52 229.88,-52"/>
<text xml:space="preserve" text-anchor="middle" x="181" y="-35.55" font-family="Helvetica,sans-Serif" font-size="11.00">prefs&#45;view</text>
<text xml:space="preserve" text-anchor="middle" x="181" y="-23.55" font-family="Helvetica,sans-Serif" font-size="11.00">(Preferences window)</text>
</g>
<!-- prefs&#45;&gt;dispatch -->
<g id="edge3" class="edge">
<title>prefs&#45;&gt;dispatch</title>
<path fill="none" stroke="black" d="M171.94,-52.36C156.74,-84.13 130.4,-152.71 158.75,-200.13 167.85,-215.35 183.07,-226.48 198.74,-234.48"/>
<polygon fill="black" stroke="black" points="197.14,-237.59 207.68,-238.65 200.1,-231.25 197.14,-237.59"/>
<text xml:space="preserve" text-anchor="middle" x="192.88" y="-147.45" font-family="Helvetica,sans-Serif" font-size="9.00">[[:action/pick&#45;bg]]</text>
</g>
<!-- ex -->
<g id="node3" class="node">
<title>ex</title>
<path fill="none" stroke="black" d="M355.75,-52C355.75,-52 272.25,-52 272.25,-52 266.25,-52 260.25,-46 260.25,-40 260.25,-40 260.25,-28 260.25,-28 260.25,-22 266.25,-16 272.25,-16 272.25,-16 355.75,-16 355.75,-16 361.75,-16 367.75,-22 367.75,-28 367.75,-28 367.75,-40 367.75,-40 367.75,-46 361.75,-52 355.75,-52"/>
<text xml:space="preserve" text-anchor="middle" x="314" y="-35.55" font-family="Helvetica,sans-Serif" font-size="11.00">example views</text>
<text xml:space="preserve" text-anchor="middle" x="314" y="-23.55" font-family="Helvetica,sans-Serif" font-size="11.00">(one window each)</text>
</g>
<!-- ex&#45;&gt;dispatch -->
<g id="edge2" class="edge">
<title>ex&#45;&gt;dispatch</title>
<path fill="none" stroke="black" d="M315.7,-52.3C316.36,-69.29 314.52,-94.88 300,-110.5 282.56,-129.26 259.9,-104.85 244.25,-125.13 222.38,-153.47 232.24,-196.63 242.58,-224.79"/>
<polygon fill="black" stroke="black" points="239.33,-226.08 246.25,-234.1 245.84,-223.51 239.33,-226.08"/>
<text xml:space="preserve" text-anchor="middle" x="277.62" y="-147.45" font-family="Helvetica,sans-Serif" font-size="9.00">[[:action/inc]] etc.</text>
</g>
<!-- menu -->
<g id="node4" class="node">
<title>menu</title>
<path fill="none" stroke="black" d="M434.62,-169.13C434.62,-169.13 335.38,-169.13 335.38,-169.13 329.38,-169.13 323.38,-163.13 323.38,-157.13 323.38,-157.13 323.38,-145.13 323.38,-145.13 323.38,-139.13 329.38,-133.13 335.38,-133.13 335.38,-133.13 434.62,-133.13 434.62,-133.13 440.62,-133.13 446.62,-139.13 446.62,-145.13 446.62,-145.13 446.62,-157.13 446.62,-157.13 446.62,-163.13 440.62,-169.13 434.62,-169.13"/>
<text xml:space="preserve" text-anchor="middle" x="385" y="-152.68" font-family="Helvetica,sans-Serif" font-size="11.00">app menu</text>
<text xml:space="preserve" text-anchor="middle" x="385" y="-140.68" font-family="Helvetica,sans-Serif" font-size="11.00">Preferences… (cmd&#45;,)</text>
</g>
<!-- menu&#45;&gt;prefs -->
<g id="edge5" class="edge">
<title>menu&#45;&gt;prefs</title>
<path fill="none" stroke="black" stroke-dasharray="5,2" d="M337.82,-132.67C328.69,-129.78 319.12,-127.1 310,-125.13 279.26,-118.49 190.31,-133.86 169.25,-110.5 157.7,-97.69 160.91,-78.42 166.87,-62.56"/>
<polygon fill="black" stroke="black" points="169.97,-64.2 170.69,-53.63 163.54,-61.45 169.97,-64.2"/>
<text xml:space="preserve" text-anchor="middle" x="207.12" y="-97.08" font-family="Helvetica,sans-Serif" font-size="9.00">show&#45;preferences!</text>
</g>
<!-- panel -->
<g id="node5" class="node">
<title>panel</title>
<path fill="none" stroke="black" d="M538.88,-169.13C538.88,-169.13 477.12,-169.13 477.12,-169.13 471.12,-169.13 465.12,-163.13 465.12,-157.13 465.12,-157.13 465.12,-145.13 465.12,-145.13 465.12,-139.13 471.12,-133.13 477.12,-133.13 477.12,-133.13 538.88,-133.13 538.88,-133.13 544.88,-133.13 550.88,-139.13 550.88,-145.13 550.88,-145.13 550.88,-157.13 550.88,-157.13 550.88,-163.13 544.88,-169.13 538.88,-169.13"/>
<text xml:space="preserve" text-anchor="middle" x="508" y="-152.68" font-family="Helvetica,sans-Serif" font-size="11.00">NSColorPanel</text>
<text xml:space="preserve" text-anchor="middle" x="508" y="-140.68" font-family="Helvetica,sans-Serif" font-size="11.00">(continuous)</text>
</g>
<!-- panel&#45;&gt;dispatch -->
<g id="edge4" class="edge">
<title>panel&#45;&gt;dispatch</title>
<path fill="none" stroke="black" d="M494.52,-169.45C485.02,-180.28 471.3,-193.4 456,-200.13 416.81,-217.36 401.56,-197.83 360,-208.13 339,-213.33 316.82,-222.24 298.27,-230.74"/>
<polygon fill="black" stroke="black" points="297.02,-227.46 289.47,-234.89 300.01,-233.79 297.02,-227.46"/>
<text xml:space="preserve" text-anchor="middle" x="408" y="-209.33" font-family="Helvetica,sans-Serif" font-size="9.00">[[:action/set&#45;bg [r g b a]]]</text>
</g>
<!-- bg -->
<g id="node6" class="node">
<title>bg</title>
<path fill="none" stroke="black" d="M655.25,-169.13C655.25,-169.13 580.75,-169.13 580.75,-169.13 574.75,-169.13 568.75,-163.13 568.75,-157.13 568.75,-157.13 568.75,-145.13 568.75,-145.13 568.75,-139.13 574.75,-133.13 580.75,-133.13 580.75,-133.13 655.25,-133.13 655.25,-133.13 661.25,-133.13 667.25,-139.13 667.25,-145.13 667.25,-145.13 667.25,-157.13 667.25,-157.13 667.25,-163.13 661.25,-169.13 655.25,-169.13"/>
<text xml:space="preserve" text-anchor="middle" x="618" y="-152.68" font-family="Helvetica,sans-Serif" font-size="11.00">main window</text>
<text xml:space="preserve" text-anchor="middle" x="618" y="-140.68" font-family="Helvetica,sans-Serif" font-size="11.00">backgroundColor</text>
</g>
<!-- dispatch&#45;&gt;panel -->
<g id="edge6" class="edge">
<title>dispatch&#45;&gt;panel</title>
<path fill="none" stroke="black" stroke-dasharray="5,2" d="M300.86,-248.71C351.86,-243.42 430.43,-233.1 456,-217.88 471.6,-208.59 484.34,-192.75 493.31,-178.94"/>
<polygon fill="black" stroke="black" points="496.14,-181.02 498.37,-170.66 490.17,-177.37 496.14,-181.02"/>
<text xml:space="preserve" text-anchor="middle" x="505.09" y="-209.33" font-family="Helvetica,sans-Serif" font-size="9.00">open&#45;color&#45;panel!</text>
</g>
<!-- state -->
<g id="node8" class="node">
<title>state</title>
<ellipse fill="none" stroke="black" stroke-width="2" cx="812" cy="-151.13" rx="86.62" ry="22.63"/>
<text xml:space="preserve" text-anchor="middle" x="812" y="-152.68" font-family="Helvetica,sans-Serif" font-size="11.00">state</text>
<text xml:space="preserve" text-anchor="middle" x="812" y="-140.68" font-family="Helvetica,sans-Serif" font-size="11.00">{:count n, :bg [r g b a]}</text>
</g>
<!-- dispatch&#45;&gt;state -->
<g id="edge7" class="edge">
<title>dispatch&#45;&gt;state</title>
<path fill="none" stroke="black" d="M300.8,-250.64C379.23,-246.05 543.87,-233.06 679,-200.13 705.16,-193.75 733.33,-184.03 756.97,-174.99"/>
<polygon fill="black" stroke="black" points="758.03,-178.34 766.08,-171.45 755.49,-171.81 758.03,-178.34"/>
<text xml:space="preserve" text-anchor="middle" x="645.82" y="-209.33" font-family="Helvetica,sans-Serif" font-size="9.00">swap!</text>
</g>
<!-- state&#45;&gt;main -->
<g id="edge8" class="edge">
<title>state&#45;&gt;main</title>
<path fill="none" stroke="black" d="M746.67,-135.83C725.22,-131.68 701.18,-127.6 679,-125.13 589.61,-115.17 360.16,-137.95 274.5,-110.5 259.53,-105.7 259.91,-95.97 245,-91 216.7,-81.56 138.45,-94.69 111,-83 99.35,-78.04 88.65,-69.29 80.03,-60.61"/>
<polygon fill="black" stroke="black" points="82.83,-58.49 73.46,-53.55 77.7,-63.26 82.83,-58.49"/>
<text xml:space="preserve" text-anchor="middle" x="290.25" y="-97.08" font-family="Helvetica,sans-Serif" font-size="9.00">::render</text>
</g>
<!-- state&#45;&gt;prefs -->
<g id="edge9" class="edge">
<title>state&#45;&gt;prefs</title>
<path fill="none" stroke="black" d="M745.21,-136.39C724.1,-132.36 700.63,-128.22 679,-125.13 655.35,-121.75 273.45,-91.18 251,-83 236.25,-77.62 221.66,-68.41 209.64,-59.48"/>
<polygon fill="black" stroke="black" points="211.85,-56.76 201.8,-53.39 207.55,-62.29 211.85,-56.76"/>
<text xml:space="preserve" text-anchor="middle" x="540.16" y="-97.08" font-family="Helvetica,sans-Serif" font-size="9.00">::prefs&#45;render</text>
</g>
<!-- state&#45;&gt;ex -->
<g id="edge11" class="edge">
<title>state&#45;&gt;ex</title>
<path fill="none" stroke="black" stroke-dasharray="1,5" d="M756.25,-133.39C713.45,-120.85 652.78,-103.73 599,-91 524.13,-73.28 437.27,-56.79 379.3,-46.36"/>
<polygon fill="black" stroke="black" points="380.06,-42.94 369.6,-44.62 378.82,-49.83 380.06,-42.94"/>
<text xml:space="preserve" text-anchor="middle" x="712.43" y="-101.95" font-family="Helvetica,sans-Serif" font-size="9.00">::demo.example/&lt;id&gt;</text>
<text xml:space="preserve" text-anchor="middle" x="712.43" y="-92.2" font-family="Helvetica,sans-Serif" font-size="9.00">(per&#45;example atoms)</text>
</g>
<!-- state&#45;&gt;bg -->
<g id="edge10" class="edge">
<title>state&#45;&gt;bg</title>
<path fill="none" stroke="black" d="M725.13,-151.13C709.61,-151.13 693.73,-151.13 679.12,-151.13"/>
<polygon fill="black" stroke="black" points="679.22,-147.63 669.22,-151.13 679.22,-154.63 679.22,-147.63"/>
<text xml:space="preserve" text-anchor="middle" x="696.31" y="-155.33" font-family="Helvetica,sans-Serif" font-size="9.00">::apply&#45;bg</text>
</g>
</g>
</svg>
